<svg width="31" height="31" viewBox="0 0 31 31" fill="none" xmlns="http://www.w3.org/2000/svg">
<g clip-path="url(#clip0_83_1052)">
<path d="M23.8258 18.7725L18.8806 19.7827L17.4333 24.6425C17.3582 24.8969 17.2099 25.1236 17.0067 25.2941C16.8036 25.4647 16.5547 25.5716 16.2911 25.6014C16.0275 25.6313 15.761 25.5828 15.5249 25.462C15.2887 25.3412 15.0934 25.1535 14.9634 24.9223L12.5048 20.5223L7.47469 20.6739C7.20953 20.6809 6.9482 20.6095 6.72336 20.4688C6.49853 20.3281 6.32017 20.1242 6.21058 19.8826C6.10099 19.6411 6.06504 19.3726 6.10722 19.1107C6.1494 18.8488 6.26784 18.6052 6.44773 18.4103L9.87272 14.6783L8.20451 9.91034C8.11514 9.66015 8.10163 9.38915 8.16567 9.13132C8.22971 8.87349 8.36845 8.6403 8.56448 8.461C8.76052 8.2817 9.00513 8.16427 9.26764 8.12344C9.53015 8.08261 9.79887 8.12019 10.0401 8.23147L14.6152 10.3277L18.6207 7.23331C18.8304 7.0707 19.0836 6.97378 19.3483 6.95477C19.6131 6.93575 19.8775 6.99548 20.1083 7.12644C20.3392 7.2574 20.5261 7.45373 20.6456 7.69071C20.7651 7.9277 20.8118 8.19473 20.7798 8.4582L20.1838 13.4869L24.3288 16.3377C24.5481 16.4876 24.7182 16.699 24.8179 16.9453C24.9175 17.1916 24.9422 17.4618 24.8889 17.7221C24.8355 17.9823 24.7066 18.221 24.5181 18.4083C24.3296 18.5955 24.0901 18.723 23.8295 18.7746L23.8258 18.7725Z" fill="#75555E"/>
</g>
<defs>
<clipPath id="clip0_83_1052">
<rect width="21.5858" height="21.5858" fill="white" transform="translate(11.3867 0.627228) rotate(29.5669)"/>
</clipPath>
</defs>
</svg>
