<svg width="152" height="152" viewBox="0 0 152 152" fill="none" xmlns="http://www.w3.org/2000/svg">
<path d="M109.218 106.955C101.278 107.906 93.2257 106.874 85.7827 103.949C78.3396 101.025 71.738 96.3004 66.5689 90.1987C61.3999 84.0969 57.8248 76.8084 56.1638 68.9859C54.5028 61.1634 54.8078 53.0511 57.0514 45.3754C56.8266 45.5468 56.592 45.7049 56.3488 45.8488C54.6259 46.8673 52.596 47.0824 48.5363 47.5126L44.8531 47.9067C30.5849 49.4284 23.4511 50.1865 21.1737 55.3099C18.9026 60.4284 22.9894 66.5253 31.1694 78.714L33.2867 81.8656C35.6083 85.3275 36.7744 87.0619 37.1516 89.0763C37.5283 91.0964 37.079 93.1746 36.1812 97.3254L35.3609 101.107C32.202 115.727 30.6201 123.034 34.5644 126.823C38.5081 130.618 45.3677 128.384 59.0761 123.91L62.6305 122.757C66.5255 121.482 68.4723 120.851 70.433 121.08C72.3938 121.31 74.1423 122.373 77.6438 124.512L80.8248 126.454C93.1374 133.965 99.2965 137.721 104.002 134.949C108.721 132.168 108.868 124.693 109.167 109.739L109.218 106.955Z" fill="#4E393E"/>
<path opacity="0.5" d="M64.0047 36.6061L61.7628 39.7118C59.3018 43.1241 58.0713 44.8303 56.3484 45.8488C56.5942 45.7057 56.8244 45.5493 57.051 45.3754C54.807 53.0516 54.5019 61.1646 56.1631 68.9877C57.8243 76.8109 61.3999 84.0998 66.5697 90.2018C71.7394 96.3038 78.3419 101.028 85.7858 103.952C93.2297 106.876 101.283 107.908 109.223 106.956L109.236 105.869C109.326 101.624 109.368 99.4979 110.201 97.6192C111.032 95.7461 112.562 94.3269 115.625 91.4948L118.412 88.9168C129.183 78.9501 134.567 73.9607 133.533 68.45C132.505 62.94 125.739 60.5507 112.206 55.7834L108.708 54.5495C104.862 53.1948 102.937 52.5172 101.49 51.1279C100.049 49.7394 99.2449 47.7953 97.6377 43.9072L96.1785 40.3687C90.5207 26.6936 87.6946 19.8563 82.3436 19.2306C76.9926 18.6048 72.6652 24.6054 64.0047 36.6061Z" fill="#4E393E"/>
</svg>
