<svg width="184" height="185" viewBox="0 0 184 185" fill="none" xmlns="http://www.w3.org/2000/svg">
<g clip-path="url(#clip0_83_1036)">
<path d="M45.7671 79.7624C52.6292 75.0623 60.5498 72.1375 68.8197 71.2497C77.0895 70.3619 85.4505 71.539 93.1538 74.6755C100.857 77.8119 107.662 82.8099 112.96 89.2219C118.258 95.6338 121.883 103.26 123.51 111.416C123.635 111.15 123.775 110.891 123.93 110.641C125.028 108.873 126.796 107.697 130.331 105.346L133.537 103.209C145.958 94.9363 152.17 90.8026 151.803 84.9827C151.432 79.1703 144.729 75.5173 131.319 68.2189L127.849 66.3329C124.042 64.2591 122.132 63.2216 120.814 61.5461C119.495 59.8651 118.908 57.7328 117.737 53.4739L116.673 49.5925C112.546 34.5931 110.486 27.0951 105.025 25.501C99.5622 23.9014 94.3137 29.2633 83.8298 39.9883L81.1084 42.7634C78.1311 45.8135 76.6404 47.3331 74.7224 48.0657C72.8043 48.7984 70.6802 48.6597 66.4221 48.3734L62.5547 48.1152C47.587 47.1188 40.1003 46.6216 37.0965 51.4427C34.0858 56.2791 37.5495 63.2409 44.4735 77.1719L45.7671 79.7624Z" fill="#4E393E"/>
<path opacity="0.5" d="M121.32 122.849L121.892 118.906C122.518 114.575 122.831 112.41 123.929 110.641C123.771 110.892 123.634 111.147 123.509 111.416C121.882 103.259 118.257 95.6324 112.958 89.22C107.66 82.8076 100.854 77.8094 93.1502 74.6731C85.4461 71.5367 77.0843 70.3601 68.8139 71.2487C60.5434 72.1372 52.6225 75.0632 45.7604 79.7645L46.2722 80.7725C48.2334 84.7295 49.2178 86.7097 49.3548 88.8426C49.4897 90.9699 48.7633 93.0146 47.3028 97.1005L45.9744 100.819C40.8433 115.194 38.2826 122.386 41.889 126.968C45.4898 131.553 52.8777 130.498 67.6491 128.377L71.4685 127.83C75.6658 127.228 77.7672 126.926 79.7701 127.51C81.7676 128.096 83.4445 129.501 86.7983 132.312L89.8473 134.871C101.648 144.754 107.545 149.697 112.78 147.698C118.014 145.698 119.114 138.082 121.32 122.849Z" fill="#4E393E"/>
</g>
<defs>
<clipPath id="clip0_83_1036">
<rect width="142.007" height="142.007" fill="white" transform="translate(183.332 133.415) rotate(159.094)"/>
</clipPath>
</defs>
</svg>
